{"title":"Weekend 2011 720p BRRip x264 AC3 - ViZNU [P2PDL]","uid":7570347,"size":751164168,"categoryP":"video","categoryS":"hd___movies","magnet":"?xt=urn:btih:20810970857dc52781ea19bf5b7fa4705df0f4b2&amp;dn=Weekend+2011+720p+BRRip+x264+AC3+-+ViZNU+%5BP2PDL%5D&amp;tr=udp%3A%2F%2Ftracker.openbittorrent.com%3A80&amp;tr=udp%3A%2F%2Fopen.demonii.com%3A1337&amp;tr=udp%3A%2F%2Ftracker.coppersurfer.tk%3A6969&amp;tr=udp%3A%2F%2Fexodus.desync.com%3A6969","seeders":8,"leechers":1,"uploader":"ValidusVyto","files":-1,"time":1345965944,"description":"_________________________  Visit us at _________________________\n  &lt;a href=&quot;\nhttp://p2pdl.com&quot; rel=&quot;nofollow&quot; target=&quot;_NEW&quot;&gt;\nhttp://p2pdl.com&lt;/a&gt;  ____________________________ &lt;a href=&quot; http://p2pdl.com&quot; rel=&quot;nofollow&quot; target=&quot;_NEW&quot;&gt; http://p2pdl.com&lt;/a&gt;\n\n &lt;a href=&quot;\nhttp://i.imgur.com/KBO4D.jpg&quot; rel=&quot;nofollow&quot; target=&quot;_NEW&quot;&gt;\nhttp://i.imgur.com/KBO4D.jpg&lt;/a&gt;\n\n\nRelease Title: Weekend (2011)\n\n\t\t\t\t\t\nGenre: Drama | Romance\nIMDb Rating: 7.6/10  &lt;a href=&quot;\nhttp://cinemahouse.in/movie/189/Weekend&quot; rel=&quot;nofollow&quot; target=&quot;_NEW&quot;&gt;\nhttp://cinemahouse.in/movie/189/Weekend&lt;/a&gt;\n\n\nPlot: After a drunken house party with his straight mates, Russell heads out to a gay club. Just before closing time he picks up Glen but what's expected to be just a one-night stand becomes something else, something special.\n\n\nDirector:  Andrew Haigh\n\n\nStars: Tom Cullen, Chris New and Kieran Hardcastle.\n\n\nGeneral\nFormat                         : Matroska\nFormat version                 : Version 2\nFile size                      : 691 MiB\nDuration                       : 1h 37mn\nOverall bit rate               : 993 Kbps\nRelease Name                   : Weekend 2011 720p BRRip x264 AC3 - ViZNU [P2PDL]\nSource                         : 720p.BluRay\n\nVideo\nID                             : 1\nFormat                         : AVC\nFormat/Info                    : Advanced Video Codec\nCodec ID                       : V_MPEG4/ISO/AVC\nDuration                       : 1h 37mn\nBit rate                       : 864 Kbps\nWidth                          : 1 280 pixels\nHeight                         : 688 pixels\nDisplay aspect ratio           : 1.85:1\nFrame rate                     : 23.976 fps\nColor space                    : YUV\nChroma subsampling             : 4:2:0\nBit depth                      : 8 bits\nStream size                    : 588 MiB (85%)\nDefault                        : Yes\n\n\nAudio\nID                             : 2\nFormat                         : AC-3\nFormat/Info                    : Audio Coding 3\nMode extension                 : CM (complete main)\nFormat settings, Endianness    : Big\nCodec ID                       : A_AC3\nDuration                       : 1h 37mn\nBit rate mode                  : Constant\nBit rate                       : 128 Kbps\nChannel(s)                     : 2 channels\nChannel positions              : Front: L R\nSampling rate                  : 44.1 KHz\nStream size                    : 89.0 MiB (13%)\nLanguage                       : English\nDefault                        : Yes\n\n\nSubtitle                       : No\n\n\nScreens:\n &lt;a href=&quot;\nhttp://i.imgbox.com/abigpiw0.png&quot; rel=&quot;nofollow&quot; target=&quot;_NEW&quot;&gt;\nhttp://i.imgbox.com/abigpiw0.png&lt;/a&gt; &lt;a href=&quot;\nhttp://i.imgbox.com/ablE1Hw0.png&quot; rel=&quot;nofollow&quot; target=&quot;_NEW&quot;&gt;\nhttp://i.imgbox.com/ablE1Hw0.png&lt;/a&gt; &lt;a href=&quot;\nhttp://i.imgbox.com/actTpM9h.png&quot; rel=&quot;nofollow&quot; target=&quot;_NEW&quot;&gt;\nhttp://i.imgbox.com/actTpM9h.png&lt;/a&gt; &lt;a href=&quot;\nhttp://i.imgbox.com/acdIqudl.png&quot; rel=&quot;nofollow&quot; target=&quot;_NEW&quot;&gt;\nhttp://i.imgbox.com/acdIqudl.png&lt;/a&gt; &lt;a href=&quot;\nhttp://i.imgbox.com/adlykBif.png&quot; rel=&quot;nofollow&quot; target=&quot;_NEW&quot;&gt;\nhttp://i.imgbox.com/adlykBif.png&lt;/a&gt; &lt;a href=&quot;\nhttp://i.imgbox.com/acnIQzAO.png&quot; rel=&quot;nofollow&quot; target=&quot;_NEW&quot;&gt;\nhttp://i.imgbox.com/acnIQzAO.png&lt;/a&gt; &lt;a href=&quot;\nhttp://i.imgbox.com/adf1hkJr.png&quot; rel=&quot;nofollow&quot; target=&quot;_NEW&quot;&gt;\nhttp://i.imgbox.com/adf1hkJr.png&lt;/a&gt; &lt;a href=&quot;\nhttp://i.imgbox.com/adlQlnbE.png&quot; rel=&quot;nofollow&quot; target=&quot;_NEW&quot;&gt;\nhttp://i.imgbox.com/adlQlnbE.png&lt;/a&gt; &lt;a href=&quot;\nhttp://i.imgbox.com/adh5XXJ8.png&quot; rel=&quot;nofollow&quot; target=&quot;_NEW&quot;&gt;\nhttp://i.imgbox.com/adh5XXJ8.png&lt;/a&gt; &lt;a href=&quot;\nhttp://i.imgbox.com/acy9t3aS.png&quot; rel=&quot;nofollow&quot; target=&quot;_NEW&quot;&gt;\nhttp://i.imgbox.com/acy9t3aS.png&lt;/a&gt;\n\n\n\n------------------------------------------------------------------------\n\n\nRecommend you to use VLC player. Check sample to be sure. Enjoy!\n\n\nGreets to: srkfan, Vitamin_X, MgB, Feel_Free, staff members at ExtraTorrent, TPB,KAT, 1337x, PublicHD, Ahashare, SilverTorrent, TorrentMafia, P2PDL, and all others\n\n\nEncoder Notes: Looking For Early Access To Anything You Can Provide DVDScr, R5, DVDRips, BluRay, Direct Audio, Early Music Releases, Seedboxes, Links, Dedicated Servers anything u can provide, Advance / Promo CDs/DVDs. If You Got anything to offer contact me at &quot;&lt;a class=&quot;__cf_email__&quot; href=&quot;/cdn-cgi/l/email-protection&quot; data-cfemail=&quot;88ebe7e6fce9ebfcc8fce1e6f1e5a6edfd&quot;&gt;[email&amp;#160;protected]&lt;/a&gt;&lt;script data-cfhash='f9e31' type=&quot;text/javascript&quot;&gt;\n/* &lt;![CDATA[ */!function(){try{var t=&quot;currentScript&quot;in document?document.currentScript:function(){for(var t=document.getElementsByTagName(&quot;script&quot;),e=t.length;e--;)if(t[e].getAttribute(&quot;data-cfhash&quot;))return t[e]}();if(t&amp;&amp;t.previousSibling){var e,r,n,i,c=t.previousSibling,a=c.getAttribute(&quot;data-cfemail&quot;);if(a){for(e=&quot;&quot;,r=parseInt(a.substr(0,2),16),n=2;a.length-n;n+=2)i=parseInt(a.substr(n,2),16)^r,e+=String.fromCharCode(i);e=document.createTextNode(e),c.parentNode.replaceChild(e,c)}t.parentNode.removeChild(t);}}catch(u){}}()/* ]]&gt; */&lt;/script&gt;&quot;\n","torrent":{"xt":"urn:btih:20810970857dc52781ea19bf5b7fa4705df0f4b2","amp;dn":"Weekend+2011+720p+BRRip+x264+AC3+-+ViZNU+%5BP2PDL%5D","amp;tr":["udp%3A%2F%2Ftracker.openbittorrent.com%3A80","udp%3A%2F%2Fopen.demonii.com%3A1337","udp%3A%2F%2Ftracker.coppersurfer.tk%3A6969","udp%3A%2F%2Fexodus.desync.com%3A6969"],"infoHash":"20810970857dc52781ea19bf5b7fa4705df0f4b2","infoHashBuffer":{"type":"Buffer","data":[32,129,9,112,133,125,197,39,129,234,25,191,91,127,164,112,93,240,244,178]},"announce":[],"urlList":[]}}